<?xml version="1.0" encoding="UTF-8" standalone="no"?>
<svg width="102px" height="114px" viewBox="0 0 102 114" version="1.1" xmlns="http://www.w3.org/2000/svg" xmlns:xlink="http://www.w3.org/1999/xlink" xmlns:sketch="http://www.bohemiancoding.com/sketch/ns">
    <!-- Generator: Sketch 3.5.2 (25235) - http://www.bohemiancoding.com/sketch -->
    <title>1455200538_refresh</title>
    <desc>Created with Sketch.</desc>
    <defs></defs>
    <g id="Page-1" stroke="none" stroke-width="1" fill="none" fill-rule="evenodd" sketch:type="MSPage">
        <g id="1455200538_refresh" sketch:type="MSLayerGroup" fill="#F8861D">
            <path d="M59.511,83.536 C59.125,84.571 59.651,85.723 60.686,86.109 L77.431,92.357 C69.577,97.977 60.331,100.951 50.627,100.951 C25.192,100.951 4.5,80.258 4.5,54.823 C4.5,53.719 3.604,52.823 2.5,52.823 C1.396,52.823 0.5,53.719 0.5,54.823 C0.5,82.463 22.987,104.951 50.627,104.951 C60.352,104.951 69.653,102.201 77.738,96.985 L74.651,111.536 C74.422,112.616 75.112,113.678 76.192,113.907 C76.332,113.937 76.471,113.951 76.609,113.951 C77.534,113.951 78.364,113.306 78.563,112.365 L83.253,90.26 L62.083,82.362 C61.051,81.977 59.898,82.501 59.511,83.536 L59.511,83.536 Z M51.375,9.322 C41.647,9.322 32.345,12.071 24.265,17.285 L27.351,2.737 C27.58,1.656 26.891,0.595 25.81,0.366 C24.733,0.137 23.667,0.827 23.439,1.908 L18.749,24.012 L39.919,31.91 C40.149,31.996 40.386,32.037 40.618,32.037 C41.429,32.037 42.191,31.539 42.492,30.735 C42.878,29.701 42.352,28.548 41.317,28.162 L24.57,21.912 C32.42,16.294 41.667,13.321 51.376,13.321 C76.81,13.321 97.501,34.012 97.501,59.446 C97.501,60.55 98.397,61.446 99.501,61.446 C100.605,61.446 101.501,60.55 101.501,59.446 C101.5,31.808 79.014,9.322 51.375,9.322 L51.375,9.322 Z" id="Shape" sketch:type="MSShapeGroup"></path>
        </g>
    </g>
</svg>